<?xml version="1.0" encoding="utf-8"?>
<!-- Generator: Adobe Illustrator 16.0.0, SVG Export Plug-In . SVG Version: 6.00 Build 0)  -->
<!DOCTYPE svg PUBLIC "-//W3C//DTD SVG 1.1//EN" "http://www.w3.org/Graphics/SVG/1.1/DTD/svg11.dtd">
<svg version="1.1" id="Capa_1" xmlns="http://www.w3.org/2000/svg" xmlns:xlink="http://www.w3.org/1999/xlink" x="0px" y="0px"
	 width="250px" height="50px" viewBox="131 231 250 50" enable-background="new 131 231 250 50" xml:space="preserve">
<g>
	<path fill="#FFFFFF" d="M370.702,241.308c-1.279,0-2.32,1.039-2.32,2.32c0,1.279-1.041,2.32-2.319,2.32
		c-1.279,0-2.32-1.041-2.32-2.32c0-2.557-2.082-4.64-4.638-4.64c-2.559,0-4.641,2.083-4.641,4.64v3.093h-2.319
		c-0.427,0-0.773,0.346-0.773,0.773v1.687c-4.647,1.882-7.732,6.417-7.732,11.458c0,6.821,5.551,12.372,12.372,12.372
		c6.822,0,12.371-5.551,12.371-12.372c0-5.042-3.084-9.576-7.731-11.458v-1.687c0-0.427-0.347-0.773-0.773-0.773h-3.866v-3.093
		c0-1.707,1.386-3.093,3.094-3.093c1.705,0,3.092,1.386,3.092,3.093c0,2.131,1.734,3.867,3.866,3.867
		c2.133,0,3.865-1.735,3.865-3.867c0-0.425,0.349-0.773,0.774-0.773c0.427,0,0.772-0.348,0.772-0.773
		C371.475,241.654,371.129,241.308,370.702,241.308z M351.59,254.296c-3.499,2.438-4.36,7.267-1.922,10.768
		c0.243,0.349,0.156,0.828-0.194,1.074c-0.135,0.093-0.29,0.137-0.44,0.137c-0.245,0-0.484-0.113-0.635-0.328
		c-1.418-2.036-1.959-4.498-1.521-6.938c0.435-2.44,1.796-4.563,3.829-5.98c0.352-0.244,0.833-0.161,1.076,0.19
		S351.938,254.051,351.59,254.296z"/>
</g>
<g>
	<path fill="#FFFFFF" d="M151.041,245.271c0,0.771-0.257,1.37-1.071,1.584c0.856,0.043,1.221,0.685,1.221,1.37v4.025
		c0,1.712-0.643,2.397-2.419,2.397h-5.63v-15.521h6.059c1.22,0,1.841,0.75,1.841,1.884V245.271z M146.224,241.845v4.068h1.456
		c0.214,0,0.385-0.128,0.385-0.407v-3.361c0-0.192-0.064-0.3-0.278-0.3H146.224z M148.108,248.717c0-0.342-0.193-0.449-0.471-0.449
		h-1.413v3.661h1.563c0.257,0,0.321-0.086,0.321-0.321V248.717z"/>
	<path fill="#FFFFFF" d="M160.525,252.442c0,1.178-0.493,2.205-2.227,2.205h-3.597c-1.734,0-2.227-1.027-2.227-2.205v-11.303
		c0-1.22,0.643-2.013,2.098-2.013h3.854c1.456,0,2.098,0.792,2.098,2.013V252.442z M155.879,241.845c-0.214,0-0.278,0.107-0.278,0.3
		v9.462c0,0.235,0.042,0.321,0.299,0.321h1.178c0.257,0,0.3-0.086,0.3-0.321v-9.462c0-0.192-0.064-0.3-0.278-0.3H155.879z"/>
	<path fill="#FFFFFF" d="M164.828,247.326v7.322h-3.019v-15.521h3.275l1.691,6.551l1.691-6.551h3.297v15.521h-3.019v-7.322
		l-1.97,6.208L164.828,247.326z"/>
	<path fill="#FFFFFF" d="M180.949,245.271c0,0.771-0.257,1.37-1.071,1.584c0.856,0.043,1.221,0.685,1.221,1.37v4.025
		c0,1.712-0.643,2.397-2.419,2.397h-5.63v-15.521h6.059c1.22,0,1.841,0.75,1.841,1.884V245.271z M176.132,241.845v4.068h1.456
		c0.214,0,0.385-0.128,0.385-0.407v-3.361c0-0.192-0.064-0.3-0.278-0.3H176.132z M178.016,248.717c0-0.342-0.193-0.449-0.471-0.449
		h-1.413v3.661h1.563c0.257,0,0.321-0.086,0.321-0.321V248.717z"/>
	<path fill="#FFFFFF" d="M143.912,274.709l-0.557-2.89h3.339c0.278,0,0.364-0.086,0.364-0.321v-2.826
		c0-0.428-0.15-0.449-0.578-0.449h-1.605c-0.921,0-1.734-0.215-1.734-1.756V261.2c0-1.22,0.643-2.012,2.098-2.012h4.282l0.535,2.89
		h-3.511c-0.257,0-0.385,0.107-0.385,0.343v2.826c0,0.32,0.15,0.406,0.471,0.406h1.948c0.984,0,1.541,0.428,1.541,1.584v5.117
		c0,1.712-0.599,2.354-2.376,2.354H143.912z"/>
	<path fill="#FFFFFF" d="M157.42,259.188c1.456,0,2.098,0.792,2.098,2.012v11.111c0,1.712-0.642,2.397-2.419,2.397h-0.407v1.241
		h-2.483v-1.241h-0.385c-1.777,0-2.419-0.686-2.419-2.397V261.2c0-1.22,0.643-2.012,2.098-2.012H157.42z M154.83,261.907
		c-0.214,0-0.3,0.128-0.3,0.321v9.44c0,0.235,0.043,0.321,0.3,0.321h1.242c0.257,0,0.3-0.086,0.3-0.321v-9.462
		c0-0.193-0.064-0.3-0.278-0.3H154.83z"/>
	<path fill="#FFFFFF" d="M163.223,274.709c-1.777,0-2.419-0.686-2.419-2.397v-13.123h3.168v12.459c0,0.235,0.043,0.343,0.3,0.343
		h1.092c0.257,0,0.3-0.107,0.3-0.343v-12.459h3.168v13.123c0,1.712-0.643,2.397-2.419,2.397H163.223z"/>
	<path fill="#FFFFFF" d="M172.943,272.782l-0.278,1.927h-3.126l2.805-15.521h3.318l2.804,15.521h-3.125l-0.278-1.927H172.943z
		 M173.285,270.32h1.435l-0.707-5.502L173.285,270.32z"/>
	<path fill="#FFFFFF" d="M187.244,272.312c0,1.712-0.643,2.397-2.419,2.397h-5.502v-15.521h6.08c1.22,0,1.841,0.749,1.841,1.884
		V272.312z M182.406,261.907v10.083h1.456c0.257,0,0.3-0.086,0.3-0.321v-9.462c0-0.193-0.064-0.3-0.278-0.3H182.406z"/>
</g>
<text transform="matrix(1 0 0 1 142.499 168.6475)"><tspan x="0" y="0" fill="#FFFFFF" font-family="'AmericanCaptain'" font-size="21.4094">Bomb </tspan><tspan x="0" y="20.062" fill="#FFFFFF" font-family="'AmericanCaptain'" font-size="21.4094">Squad</tspan></text>
<g>
	<path fill="#FFEC00" d="M239.811,269.097c0,3.899-1.462,5.46-5.509,5.46h-12.529v-35.345h13.846c2.779,0,4.192,1.707,4.192,4.291
		V269.097z M228.793,245.403v22.962h3.315c0.585,0,0.683-0.195,0.683-0.731v-21.548c0-0.438-0.146-0.683-0.634-0.683H228.793z"/>
	<path fill="#FFEC00" d="M249.173,270.169l-0.634,4.388h-7.118l6.387-35.345h7.557l6.386,35.345h-7.118L254,270.169H249.173z
		 M249.953,264.563h3.267l-1.609-12.529L249.953,264.563z"/>
	<path fill="#FFEC00" d="M272.723,239.211h7.166l-6.532,35.345h-7.361l-6.533-35.345h7.167l0.634,4.534l2.389,18.282l2.438-18.379
		L272.723,239.211z"/>
	<path fill="#FFEC00" d="M281.841,239.211h13.748l1.219,6.582h-7.703v8.385h5.851v6.094h-5.851v7.703h7.41l-1.219,6.581h-13.455
		V239.211z"/>
</g>
<text transform="matrix(1 0 0 1 222.4126 153.5566)" fill="#FFEC00" font-family="'AmericanCaptain'" font-size="48.7556"> Dave</text>
</svg>
