<?xml version="1.0" encoding="utf-8"?>
<!-- Generator: Adobe Illustrator 16.0.0, SVG Export Plug-In . SVG Version: 6.00 Build 0)  -->
<!DOCTYPE svg PUBLIC "-//W3C//DTD SVG 1.1//EN" "http://www.w3.org/Graphics/SVG/1.1/DTD/svg11.dtd">
<svg version="1.1" id="Capa_1" xmlns="http://www.w3.org/2000/svg" xmlns:xlink="http://www.w3.org/1999/xlink" x="0px" y="0px"
	 width="250px" height="50px" viewBox="131 231 250 50" enable-background="new 131 231 250 50" xml:space="preserve">
<path fill="#FFFFFF" d="M372.568,254.75H370.3c-0.453-7.259-6.351-12.93-13.609-13.61v-2.269h-2.268v2.269
	c-7.259,0.681-12.93,6.352-13.61,13.61h-2.268v2.268h2.268c0.454,7.259,6.352,12.93,13.61,13.609v2.269h2.268v-2.269
	c7.259-0.453,12.93-6.351,13.609-13.609h2.269V254.75z M356.69,266.998v-5.443h-2.268v5.443c-5.444-0.453-9.527-4.537-9.98-9.98
	h5.443v-2.268h-5.443c0.453-5.444,4.536-9.527,9.98-9.98v5.443h2.268v-5.443c5.444,0.453,9.527,4.763,9.98,9.98h-5.443v2.268h5.443
	C366.218,262.461,362.135,266.545,356.69,266.998z"/>
<g>
	<path fill="#FFEC00" d="M221.773,274.557l-1.268-6.581h7.605c0.634,0,0.829-0.195,0.829-0.731v-6.436
		c0-0.975-0.341-1.023-1.316-1.023h-3.656c-2.097,0-3.949-0.488-3.949-3.998v-11.993c0-2.779,1.463-4.583,4.778-4.583h9.75
		l1.219,6.582h-7.996c-0.585,0-0.877,0.244-0.877,0.78v6.435c0,0.731,0.341,0.926,1.073,0.926h4.437c2.242,0,3.51,0.975,3.51,3.607
		v11.652c0,3.899-1.365,5.362-5.411,5.362H221.773z"/>
	<path fill="#FFEC00" d="M252.293,239.211l1.755,6.582h-4.729v28.764h-7.215v-28.764h-4.729l1.853-6.582H252.293z"/>
	<path fill="#FFEC00" d="M259.851,270.169l-0.634,4.388h-7.118l6.386-35.345h7.557l6.387,35.345h-7.117l-0.634-4.388H259.851z
		 M260.631,264.563h3.267l-1.609-12.529L260.631,264.563z"/>
	<path fill="#FFEC00" d="M274.381,239.211h6.728l3.607,14.187v-14.187h7.264v35.345h-7.264l-3.803-14.771v14.771h-6.532V239.211z"/>
</g>
<text transform="matrix(1 0 0 1 220.8496 205.8066)" fill="#FFEC00" font-family="'AmericanCaptain'" font-size="48.7556">Stan</text>
<g>
	<path fill="#FFFFFF" d="M143.912,254.647l-0.557-2.89h3.339c0.278,0,0.364-0.085,0.364-0.321v-2.826c0-0.428-0.15-0.45-0.578-0.45
		h-1.605c-0.921,0-1.734-0.214-1.734-1.755v-5.266c0-1.22,0.643-2.013,2.098-2.013h4.282l0.535,2.89h-3.511
		c-0.257,0-0.385,0.107-0.385,0.343v2.826c0,0.321,0.15,0.407,0.471,0.407h1.948c0.984,0,1.541,0.428,1.541,1.584v5.116
		c0,1.713-0.599,2.355-2.376,2.355H143.912z"/>
	<path fill="#FFFFFF" d="M151.405,239.126h2.955l1.584,6.23v-6.23h3.19v15.521h-3.19l-1.67-6.487v6.487h-2.869V239.126z"/>
	<path fill="#FFFFFF" d="M160.418,239.126h3.104v15.521h-3.104V239.126z"/>
	<path fill="#FFFFFF" d="M170.908,239.126c1.22,0,1.841,0.75,1.841,1.884v7.428c0,1.178-0.471,2.077-2.205,2.077h-2.654v4.132
		h-3.083v-15.521H170.908z M167.89,241.845v6.102h1.542c0.257,0,0.299-0.085,0.299-0.321v-5.48c0-0.192-0.064-0.3-0.278-0.3H167.89z
		"/>
	<path fill="#FFFFFF" d="M173.97,239.126h6.037l0.535,2.89h-3.382v3.682h2.569v2.676h-2.569v3.382h3.254l-0.535,2.89h-5.909V239.126
		z"/>
	<path fill="#FFFFFF" d="M189.598,248.332c0,0.685-0.492,1.37-1.392,1.37l1.627,4.945h-3.211l-1.499-4.945h-0.407v4.945h-3.104
		v-15.521h5.887c1.456,0,2.098,0.792,2.098,2.013V248.332z M184.717,241.845v5.352h1.52c0.235,0,0.299-0.085,0.299-0.321v-4.71
		c0-0.193-0.085-0.321-0.299-0.321H184.717z"/>
	<path fill="#FFFFFF" d="M143.912,274.709l-0.557-2.89h3.339c0.278,0,0.364-0.086,0.364-0.321v-2.826
		c0-0.428-0.15-0.449-0.578-0.449h-1.605c-0.921,0-1.734-0.215-1.734-1.756V261.2c0-1.22,0.643-2.012,2.098-2.012h4.282l0.535,2.89
		h-3.511c-0.257,0-0.385,0.107-0.385,0.343v2.826c0,0.32,0.15,0.406,0.471,0.406h1.948c0.984,0,1.541,0.428,1.541,1.584v5.117
		c0,1.712-0.599,2.354-2.376,2.354H143.912z"/>
	<path fill="#FFFFFF" d="M157.42,259.188c1.456,0,2.098,0.792,2.098,2.012v11.111c0,1.712-0.642,2.397-2.419,2.397h-0.407v1.241
		h-2.483v-1.241h-0.385c-1.777,0-2.419-0.686-2.419-2.397V261.2c0-1.22,0.643-2.012,2.098-2.012H157.42z M154.83,261.907
		c-0.214,0-0.3,0.128-0.3,0.321v9.44c0,0.235,0.043,0.321,0.3,0.321h1.242c0.257,0,0.3-0.086,0.3-0.321v-9.462
		c0-0.193-0.064-0.3-0.278-0.3H154.83z"/>
	<path fill="#FFFFFF" d="M163.223,274.709c-1.777,0-2.419-0.686-2.419-2.397v-13.123h3.168v12.459c0,0.235,0.043,0.343,0.3,0.343
		h1.092c0.257,0,0.3-0.107,0.3-0.343v-12.459h3.168v13.123c0,1.712-0.643,2.397-2.419,2.397H163.223z"/>
	<path fill="#FFFFFF" d="M172.943,272.782l-0.278,1.927h-3.126l2.805-15.521h3.318l2.804,15.521h-3.125l-0.278-1.927H172.943z
		 M173.285,270.32h1.435l-0.707-5.502L173.285,270.32z"/>
	<path fill="#FFFFFF" d="M187.244,272.312c0,1.712-0.643,2.397-2.419,2.397h-5.502v-15.521h6.08c1.22,0,1.841,0.749,1.841,1.884
		V272.312z M182.406,261.907v10.083h1.456c0.257,0,0.3-0.086,0.3-0.321v-9.462c0-0.193-0.064-0.3-0.278-0.3H182.406z"/>
</g>
<text transform="matrix(1 0 0 1 153.499 180.6475)"><tspan x="0" y="0" fill="#FFFFFF" font-family="'AmericanCaptain'" font-size="21.4094">Sniper </tspan><tspan x="0" y="20.062" fill="#FFFFFF" font-family="'AmericanCaptain'" font-size="21.4094">Squad</tspan></text>
</svg>
