<?xml version="1.0" encoding="utf-8"?>
<!-- Generator: Adobe Illustrator 16.0.0, SVG Export Plug-In . SVG Version: 6.00 Build 0)  -->
<!DOCTYPE svg PUBLIC "-//W3C//DTD SVG 1.1//EN" "http://www.w3.org/Graphics/SVG/1.1/DTD/svg11.dtd">
<svg version="1.1" id="Capa_1" xmlns="http://www.w3.org/2000/svg" xmlns:xlink="http://www.w3.org/1999/xlink" x="0px" y="0px"
	 width="250px" height="50px" viewBox="131 231 250 50" enable-background="new 131 231 250 50" xml:space="preserve">
<g>
	<path fill="#FFEC00" d="M240.909,260.175c0,1.561-1.121,3.12-3.169,3.12l3.705,11.262h-7.313l-3.413-11.262h-0.926v11.262h-7.069
		v-35.345h13.407c3.315,0,4.778,1.804,4.778,4.583V260.175z M229.793,245.403v12.188h3.461c0.536,0,0.682-0.194,0.682-0.731v-10.725
		c0-0.439-0.195-0.731-0.682-0.731H229.793z"/>
	<path fill="#FFEC00" d="M243.933,239.211h7.069v35.345h-7.069V239.211z"/>
	<path fill="#FFEC00" d="M259.436,274.557c-4.046,0-5.509-1.561-5.509-5.46V243.55c0-2.779,1.804-4.339,4.145-4.339h9.312
		l1.219,6.582h-6.777c-0.487,0-0.633,0.244-0.633,0.683v20.817c0,0.438,0.146,0.683,0.633,0.683h6.777l-1.268,6.581H259.436z"/>
	<path fill="#FFEC00" d="M279.327,254.374l3.608-15.162h7.313l-4.241,16.283l4.192,19.062h-7.752l-2.778-14.577h-1.414v14.577
		h-7.215v-35.345h7.215v15.162H279.327z"/>
</g>
<g>
	<path fill="#FFEC00" d="M225.773,205.807l-1.268-6.581h7.605c0.634,0,0.829-0.195,0.829-0.731v-6.436
		c0-0.975-0.341-1.023-1.316-1.023h-3.656c-2.097,0-3.949-0.488-3.949-3.998v-11.993c0-2.779,1.463-4.583,4.778-4.583h9.75
		l1.219,6.582h-7.996c-0.585,0-0.877,0.244-0.877,0.78v6.435c0,0.731,0.341,0.926,1.073,0.926h4.437c2.242,0,3.51,0.975,3.51,3.607
		v11.652c0,3.899-1.365,5.362-5.411,5.362H225.773z"/>
	<path fill="#FFEC00" d="M256.293,170.461l1.755,6.582h-4.729v28.764h-7.215v-28.764h-4.729l1.853-6.582H256.293z"/>
	<path fill="#FFEC00" d="M263.851,201.419l-0.634,4.388h-7.118l6.386-35.345h7.557l6.387,35.345h-7.117l-0.634-4.388H263.851z
		 M264.631,195.813h3.267l-1.609-12.529L264.631,195.813z"/>
	<path fill="#FFEC00" d="M278.381,170.461h6.728l3.607,14.187v-14.187h7.264v35.345h-7.264l-3.803-14.771v14.771h-6.532V170.461z"/>
</g>
<g>
	<path fill="#FFFFFF" d="M151.126,248.332c0,0.685-0.492,1.37-1.392,1.37l1.627,4.945h-3.211l-1.499-4.945h-0.407v4.945h-3.104
		v-15.521h5.887c1.456,0,2.098,0.792,2.098,2.013V248.332z M146.246,241.845v5.352h1.52c0.235,0,0.299-0.085,0.299-0.321v-4.71
		c0-0.193-0.085-0.321-0.299-0.321H146.246z"/>
	<path fill="#FFFFFF" d="M152.454,239.126h3.104v15.521h-3.104V239.126z"/>
	<path fill="#FFFFFF" d="M156.843,239.126h6.037l0.535,2.89h-3.382v3.682h2.569v2.676h-2.569v6.272h-3.19V239.126z"/>
	<path fill="#FFFFFF" d="M164.379,239.126h3.19v12.631h3.125l-0.535,2.89h-5.78V239.126z"/>
	<path fill="#FFFFFF" d="M171.658,239.126h6.037l0.535,2.89h-3.382v3.682h2.569v2.676h-2.569v3.382h3.254l-0.535,2.89h-5.909
		V239.126z"/>
	<path fill="#FFFFFF" d="M143.912,274.709l-0.557-2.89h3.339c0.278,0,0.364-0.086,0.364-0.321v-2.826
		c0-0.428-0.15-0.449-0.578-0.449h-1.605c-0.921,0-1.734-0.215-1.734-1.756V261.2c0-1.22,0.643-2.012,2.098-2.012h4.282l0.535,2.89
		h-3.511c-0.257,0-0.385,0.107-0.385,0.343v2.826c0,0.32,0.15,0.406,0.471,0.406h1.948c0.984,0,1.541,0.428,1.541,1.584v5.117
		c0,1.712-0.599,2.354-2.376,2.354H143.912z"/>
	<path fill="#FFFFFF" d="M157.42,259.188c1.456,0,2.098,0.792,2.098,2.012v11.111c0,1.712-0.642,2.397-2.419,2.397h-0.407v1.241
		h-2.483v-1.241h-0.385c-1.777,0-2.419-0.686-2.419-2.397V261.2c0-1.22,0.643-2.012,2.098-2.012H157.42z M154.83,261.907
		c-0.214,0-0.3,0.128-0.3,0.321v9.44c0,0.235,0.043,0.321,0.3,0.321h1.242c0.257,0,0.3-0.086,0.3-0.321v-9.462
		c0-0.193-0.064-0.3-0.278-0.3H154.83z"/>
	<path fill="#FFFFFF" d="M163.223,274.709c-1.777,0-2.419-0.686-2.419-2.397v-13.123h3.168v12.459c0,0.235,0.043,0.343,0.3,0.343
		h1.092c0.257,0,0.3-0.107,0.3-0.343v-12.459h3.168v13.123c0,1.712-0.643,2.397-2.419,2.397H163.223z"/>
	<path fill="#FFFFFF" d="M172.943,272.782l-0.278,1.927h-3.126l2.805-15.521h3.318l2.804,15.521h-3.125l-0.278-1.927H172.943z
		 M173.285,270.32h1.435l-0.707-5.502L173.285,270.32z"/>
	<path fill="#FFFFFF" d="M187.244,272.312c0,1.712-0.643,2.397-2.419,2.397h-5.502v-15.521h6.08c1.22,0,1.841,0.749,1.841,1.884
		V272.312z M182.406,261.907v10.083h1.456c0.257,0,0.3-0.086,0.3-0.321v-9.462c0-0.193-0.064-0.3-0.278-0.3H182.406z"/>
</g>
<g>
	<path fill="#FFFFFF" d="M154.912,180.647l-0.557-2.89h3.339c0.278,0,0.364-0.085,0.364-0.321v-2.826c0-0.428-0.15-0.45-0.578-0.45
		h-1.605c-0.921,0-1.734-0.214-1.734-1.755v-5.266c0-1.22,0.643-2.013,2.098-2.013h4.282l0.535,2.89h-3.511
		c-0.257,0-0.385,0.107-0.385,0.343v2.826c0,0.321,0.15,0.407,0.471,0.407h1.948c0.984,0,1.541,0.428,1.541,1.584v5.116
		c0,1.713-0.599,2.355-2.376,2.355H154.912z"/>
	<path fill="#FFFFFF" d="M162.405,165.126h2.955l1.584,6.23v-6.23h3.19v15.521h-3.19l-1.67-6.487v6.487h-2.869V165.126z"/>
	<path fill="#FFFFFF" d="M171.418,165.126h3.104v15.521h-3.104V165.126z"/>
	<path fill="#FFFFFF" d="M181.908,165.126c1.22,0,1.841,0.75,1.841,1.884v7.428c0,1.178-0.471,2.077-2.205,2.077h-2.654v4.132
		h-3.083v-15.521H181.908z M178.89,167.845v6.102h1.542c0.257,0,0.299-0.085,0.299-0.321v-5.48c0-0.192-0.064-0.3-0.278-0.3H178.89z
		"/>
	<path fill="#FFFFFF" d="M184.97,165.126h6.037l0.535,2.89h-3.382v3.682h2.569v2.676h-2.569v3.382h3.254l-0.535,2.89h-5.909V165.126
		z"/>
	<path fill="#FFFFFF" d="M200.598,174.332c0,0.685-0.492,1.37-1.392,1.37l1.627,4.945h-3.211l-1.499-4.945h-0.407v4.945h-3.104
		v-15.521h5.887c1.456,0,2.098,0.792,2.098,2.013V174.332z M195.717,167.845v5.352h1.52c0.235,0,0.299-0.085,0.299-0.321v-4.71
		c0-0.193-0.085-0.321-0.299-0.321H195.717z"/>
	<path fill="#FFFFFF" d="M154.912,200.709l-0.557-2.89h3.339c0.278,0,0.364-0.086,0.364-0.321v-2.826
		c0-0.428-0.15-0.449-0.578-0.449h-1.605c-0.921,0-1.734-0.215-1.734-1.756V187.2c0-1.22,0.643-2.012,2.098-2.012h4.282l0.535,2.89
		h-3.511c-0.257,0-0.385,0.107-0.385,0.343v2.826c0,0.32,0.15,0.406,0.471,0.406h1.948c0.984,0,1.541,0.428,1.541,1.584v5.117
		c0,1.712-0.599,2.354-2.376,2.354H154.912z"/>
	<path fill="#FFFFFF" d="M168.42,185.188c1.456,0,2.098,0.792,2.098,2.012v11.111c0,1.712-0.642,2.397-2.419,2.397h-0.407v1.241
		h-2.483v-1.241h-0.385c-1.777,0-2.419-0.686-2.419-2.397V187.2c0-1.22,0.643-2.012,2.098-2.012H168.42z M165.83,187.907
		c-0.214,0-0.3,0.128-0.3,0.321v9.44c0,0.235,0.043,0.321,0.3,0.321h1.242c0.257,0,0.3-0.086,0.3-0.321v-9.462
		c0-0.193-0.064-0.3-0.278-0.3H165.83z"/>
	<path fill="#FFFFFF" d="M174.223,200.709c-1.777,0-2.419-0.686-2.419-2.397v-13.123h3.168v12.459c0,0.235,0.043,0.343,0.3,0.343
		h1.092c0.257,0,0.3-0.107,0.3-0.343v-12.459h3.168v13.123c0,1.712-0.643,2.397-2.419,2.397H174.223z"/>
	<path fill="#FFFFFF" d="M183.943,198.782l-0.278,1.927h-3.126l2.805-15.521h3.318l2.804,15.521h-3.125l-0.278-1.927H183.943z
		 M184.285,196.32h1.435l-0.707-5.502L184.285,196.32z"/>
	<path fill="#FFFFFF" d="M198.244,198.312c0,1.712-0.643,2.397-2.419,2.397h-5.502v-15.521h6.08c1.22,0,1.841,0.749,1.841,1.884
		V198.312z M193.406,187.907v10.083h1.456c0.257,0,0.3-0.086,0.3-0.321v-9.462c0-0.193-0.064-0.3-0.278-0.3H193.406z"/>
</g>
<g>
	<g>
		<path fill="#FFFFFF" d="M335.406,270.863c-0.02,0.246,0.165,0.46,0.411,0.479l9.946,0.021c0.245,0.02,0.46-0.165,0.479-0.411
			l2.937-11.934c0.444,0.043,1.02,0.084,1.653,0.084c1.94,0,3.435-0.364,4.441-1.08c1.7-1.211,2.32-2.877,2.538-3.768h14.697
			l0.441-2.531h2.312c0.247,0,0.447-0.2,0.447-0.447v-5.508c0-0.248-0.2-0.447-0.447-0.447h-1.193l0.338-1.936h-0.931v-0.261
			c0-0.247-0.2-0.446-0.446-0.446h-2.122c-0.246,0-0.447,0.2-0.447,0.446v0.261h-26.015c-0.133,0-0.265,0.006-0.396,0.015
			l-0.221-0.499c-0.1-0.226-0.362-0.328-0.589-0.229l-0.409,0.183c-0.225,0.099-0.328,0.362-0.228,0.588l0.101,0.23
			c-0.572,0.193-1.102,0.479-1.569,0.839h-2.42c-0.247,0-0.447,0.2-0.447,0.447v7.06c0,0.248,0.2,0.447,0.447,0.447h0.039
			c0.011,0.68,0.168,1.202,0.665,1.501L335.406,270.863z M349.447,257.92l0.903-3.667h0.806c0.367,1.018,0.998,2.288,1.938,2.642
			c0.039,0.014,0.078,0.02,0.117,0.02c0.135,0,0.263-0.082,0.313-0.218c0.064-0.173-0.022-0.366-0.196-0.431
			c-0.612-0.229-1.109-1.14-1.451-2.013h4.774c-0.232,0.761-0.777,1.97-2.024,2.858c-0.803,0.571-2.114,0.873-3.794,0.873
			C350.314,257.984,349.837,257.955,349.447,257.92z"/>
	</g>
</g>
</svg>
