<?xml version="1.0" encoding="utf-8"?>
<!-- Generator: Adobe Illustrator 16.0.0, SVG Export Plug-In . SVG Version: 6.00 Build 0)  -->
<!DOCTYPE svg PUBLIC "-//W3C//DTD SVG 1.1//EN" "http://www.w3.org/Graphics/SVG/1.1/DTD/svg11.dtd">
<svg version="1.1" id="Capa_1" xmlns="http://www.w3.org/2000/svg" xmlns:xlink="http://www.w3.org/1999/xlink" x="0px" y="0px"
	 width="250px" height="50px" viewBox="131 231 250 50" enable-background="new 131 231 250 50" xml:space="preserve">
<g>
	<path fill="#FFEC00" d="M217.556,254.178h6.874v13.358c0,0.439,0.146,0.683,0.634,0.683h2.583c0.488,0,0.634-0.292,0.634-0.731
		v-21.694h-7.654l1.219-6.582h13.553v30.275c0,2.779-1.707,5.07-4.778,5.07h-8.385c-2.779,0-4.68-1.755-4.68-4.534V254.178z"/>
	<path fill="#FFEC00" d="M244.761,270.169l-0.634,4.388h-7.118l6.387-35.345h7.557l6.386,35.345h-7.118l-0.634-4.388H244.761z
		 M245.541,264.563h3.267l-1.609-12.529L245.541,264.563z"/>
	<path fill="#FFEC00" d="M259.291,239.211h6.728l3.607,14.187v-14.187h7.264v35.345h-7.264l-3.803-14.771v14.771h-6.532V239.211z"/>
	<path fill="#FFEC00" d="M279.816,239.211h13.748l1.219,6.582h-7.703v8.385h5.851v6.094h-5.851v7.703h7.41l-1.219,6.581h-13.455
		V239.211z"/>
</g>
<g>
	<g>
		<g>
			<path fill="#FFFFFF" d="M353.146,275.491c-0.044,0-0.089-0.004-0.133-0.009c-9.979-1.381-15.29-14.462-16.807-25.246
				l-0.018-0.116c-0.111-0.717-0.374-2.402,2.166-3.418c5.095-2.038,9.313-4.657,12.54-7.784c0.824-0.842,1.567-1.241,2.319-1.241
				c0.819,0,1.4,0.477,1.867,0.862c0.118,0.097,0.238,0.196,0.365,0.29c4.012,3.435,7.955,5.938,12.113,7.699
				c2.824,1.197,2.61,2.956,2.518,3.708C368.689,262.445,362.805,275.491,353.146,275.491z M353.215,239.601
				c-0.029,0-0.314,0.02-0.962,0.682c-3.424,3.32-7.854,6.076-13.182,8.208c-1.12,0.445-1.067,0.78-0.98,1.335l0.021,0.145
				c1.532,10.892,6.793,22.393,15.1,23.599c8.438-0.063,13.66-12.191,14.942-23.461l0.012-0.106
				c0.067-0.551,0.131-1.072-1.357-1.702c-4.344-1.838-8.451-4.444-12.557-7.964c-0.099-0.069-0.249-0.19-0.394-0.311
				C353.618,239.825,353.346,239.601,353.215,239.601z"/>
			<path fill="#FFFFFF" d="M353.123,270.89c-0.497,0-0.898-0.402-0.898-0.9v-25.313c0-0.498,0.402-0.901,0.898-0.901
				c0.497,0,0.899,0.403,0.899,0.901v25.314C354.022,270.487,353.619,270.89,353.123,270.89z"/>
			<path fill="#FFFFFF" d="M350.763,259.627h-8.622c-0.498,0-0.899-0.402-0.899-0.898s0.402-0.9,0.899-0.9h8.62
				c0.498,0,0.9,0.402,0.9,0.9S351.259,259.627,350.763,259.627z"/>
			<path fill="#FFFFFF" d="M364.181,259.627h-8.622c-0.498,0-0.898-0.402-0.898-0.898s0.402-0.9,0.898-0.9h8.622
				c0.498,0,0.898,0.402,0.898,0.9S364.679,259.627,364.181,259.627z"/>
		</g>
	</g>
</g>
<g>
	<path fill="#FFEC00" d="M312.861,140.217v16.673h-6.874v-35.345h7.459l3.852,14.918l3.853-14.918h7.508v35.345h-6.874v-16.673
		l-4.484,14.138L312.861,140.217z"/>
	<path fill="#FFEC00" d="M349.915,151.869c0,2.682-1.123,5.021-5.07,5.021h-8.19c-3.948,0-5.069-2.341-5.069-5.021v-25.741
		c0-2.778,1.463-4.583,4.777-4.583h8.775c3.314,0,4.777,1.805,4.777,4.583V151.869L349.915,151.869z M339.335,127.736
		c-0.486,0-0.634,0.244-0.634,0.684v21.548c0,0.536,0.099,0.731,0.683,0.731h2.683c0.585,0,0.683-0.195,0.683-0.731v-21.548
		c0-0.438-0.146-0.684-0.634-0.684H339.335z"/>
	<path fill="#FFEC00" d="M371.025,142.508c0,1.562-1.122,3.12-3.169,3.12l3.705,11.262h-7.313l-3.412-11.262h-0.928v11.262h-7.068
		v-35.345h13.406c3.315,0,4.778,1.804,4.778,4.583V142.508L371.025,142.508z M359.909,127.736v12.188h3.463
		c0.535,0,0.683-0.194,0.683-0.731v-10.725c0-0.439-0.195-0.73-0.683-0.73h-3.463V127.736z"/>
	<path fill="#FFEC00" d="M387.895,121.544l1.755,6.582h-4.729v28.764h-7.215v-28.764h-4.729l1.853-6.582H387.895z"/>
	<path fill="#FFEC00" d="M405.007,156.89h-7.459v-8.971l-6.776-26.375h7.313l3.168,16.673l3.217-16.673h7.313l-6.776,26.375V156.89
		L405.007,156.89z"/>
</g>
<g>
	<path fill="#FFFFFF" d="M170.781,183.122v7.322h-3.02v-15.521h3.275l1.691,6.551l1.69-6.551h3.298v15.521h-3.02v-7.322
		l-1.971,6.208L170.781,183.122z"/>
	<path fill="#FFFFFF" d="M179.002,174.922h6.037l0.535,2.89h-3.383v3.683h2.57v2.676h-2.57v3.382h3.255l-0.535,2.891h-5.909V174.922
		z"/>
	<path fill="#FFFFFF" d="M186.645,174.922h3.19v12.631h3.125l-0.534,2.89h-5.781V174.922z"/>
	<path fill="#FFFFFF" d="M193.924,174.922h6.037l0.535,2.89h-3.382v3.683h2.569v2.676h-2.569v3.382h3.254l-0.535,2.891h-5.909
		V174.922z"/>
	<path fill="#FFFFFF" d="M201.566,174.922h6.037l0.535,2.89h-3.381v3.683h2.568v2.676h-2.568v3.382h3.254l-0.535,2.891h-5.91
		V174.922z"/>
	<path fill="#FFFFFF" d="M173.778,194.984c1.456,0,2.098,0.793,2.098,2.012v11.111c0,1.713-0.642,2.396-2.419,2.396h-0.406v1.242
		h-2.484v-1.242h-0.385c-1.776,0-2.418-0.686-2.418-2.396v-11.111c0-1.219,0.643-2.012,2.098-2.012H173.778L173.778,194.984z
		 M171.188,197.703c-0.215,0-0.301,0.129-0.301,0.322v9.439c0,0.234,0.043,0.32,0.301,0.32h1.242c0.256,0,0.299-0.086,0.299-0.32
		v-9.463c0-0.191-0.063-0.299-0.277-0.299H171.188L171.188,197.703z"/>
	<path fill="#FFFFFF" d="M179.58,210.505c-1.777,0-2.419-0.686-2.419-2.396v-13.123h3.168v12.459c0,0.234,0.043,0.342,0.3,0.342
		h1.092c0.258,0,0.301-0.107,0.301-0.342v-12.459h3.168v13.123c0,1.711-0.644,2.396-2.42,2.396H179.58z"/>
	<path fill="#FFFFFF" d="M189.301,208.578l-0.279,1.928h-3.125l2.805-15.521h3.318l2.804,15.521h-3.125l-0.278-1.928H189.301z
		 M189.643,206.117h1.435l-0.707-5.502L189.643,206.117z"/>
	<path fill="#FFFFFF" d="M203.602,208.109c0,1.711-0.644,2.396-2.42,2.396h-5.502v-15.521h6.08c1.221,0,1.842,0.75,1.842,1.885
		V208.109z M198.764,197.703v10.084h1.455c0.258,0,0.301-0.086,0.301-0.322v-9.461c0-0.193-0.064-0.301-0.278-0.301H198.764z"/>
</g>
<g>
	<g>
		<path fill="#FFFFFF" d="M454.559,147.275l-3.938-3.938c-0.419-0.418-0.318-0.865-0.044-1.139
			c1.438-1.439,6.824-6.826,11.072-11.074c3.353-3.352,3.696-6.703,3.563-8.537c-0.1-1.357,0.842-0.246,1.002-0.052
			c6.35,7.646-0.133,14.118-2.904,16.889c-2.063,2.062-6.398,6.399-7.831,7.831C455.478,147.256,454.991,147.708,454.559,147.275z"
			/>
		<path fill="#FFFFFF" d="M447.333,142.121c-0.346-0.346-0.904-0.346-1.25,0s-0.346,0.904,0,1.25l1.823,1.822l-6.016,6.016
			c-0.165,0.166-0.259,0.393-0.259,0.625v3.32c0,0.488,0.396,0.885,0.884,0.885h1.743c0.238,0,0.467-0.098,0.634-0.268
			c0.166-0.17,0.257-0.4,0.25-0.64l-0.031-1.323l5.704-5.705l3.566,3.567c0.174,0.172,0.399,0.259,0.627,0.259
			c0.226,0,0.451-0.087,0.623-0.259c0.347-0.345,0.347-0.905,0-1.25L447.333,142.121z"/>
	</g>
</g>
<g>
	<path fill="#FFFFFF" d="M143.845,254.646l-0.557-2.889h3.338c0.279,0,0.365-0.086,0.365-0.322v-2.826
		c0-0.428-0.15-0.449-0.578-0.449h-1.605c-0.921,0-1.734-0.215-1.734-1.756v-5.266c0-1.219,0.644-2.012,2.099-2.012h4.282
		l0.535,2.889h-3.512c-0.257,0-0.385,0.107-0.385,0.344v2.826c0,0.32,0.15,0.406,0.471,0.406h1.948c0.983,0,1.541,0.428,1.541,1.584
		v5.117c0,1.713-0.599,2.354-2.376,2.354H143.845L143.845,254.646z"/>
	<path fill="#FFFFFF" d="M159.367,254.646h-3.168v-6.207h-1.691v6.207h-3.168v-15.52h3.168v6.637h1.691v-6.637h3.168V254.646z"/>
	<path fill="#FFFFFF" d="M160.651,239.126h3.104v15.52h-3.104V239.126z"/>
	<path fill="#FFFFFF" d="M165.039,239.126h6.037l0.535,2.889h-3.382v3.684h2.569v2.676h-2.569v3.381h3.254l-0.534,2.891h-5.91
		V239.126z"/>
	<path fill="#FFFFFF" d="M172.683,239.126h3.189v12.631h3.125l-0.535,2.889h-5.779V239.126z"/>
	<path fill="#FFFFFF" d="M187.883,252.25c0,1.713-0.644,2.396-2.419,2.396h-5.502v-15.52h6.08c1.22,0,1.841,0.75,1.841,1.883V252.25
		z M183.044,241.845v10.082h1.457c0.257,0,0.3-0.086,0.3-0.32v-9.463c0-0.191-0.063-0.299-0.278-0.299H183.044z"/>
	<g>
		<path fill="#FFFFFF" d="M143.758,274.709l-0.557-2.891h3.338c0.279,0,0.365-0.086,0.365-0.32v-2.826
			c0-0.428-0.15-0.449-0.578-0.449h-1.605c-0.921,0-1.734-0.215-1.734-1.756v-5.266c0-1.221,0.644-2.014,2.099-2.014h4.282
			l0.535,2.891h-3.512c-0.257,0-0.385,0.107-0.385,0.344v2.826c0,0.318,0.15,0.404,0.471,0.404h1.948
			c0.983,0,1.541,0.43,1.541,1.584v5.117c0,1.713-0.599,2.355-2.376,2.355H143.758L143.758,274.709z"/>
		<path fill="#FFFFFF" d="M157.266,259.188c1.456,0,2.098,0.793,2.098,2.014v11.109c0,1.713-0.642,2.398-2.418,2.398h-0.408v1.24
			h-2.482v-1.24h-0.385c-1.777,0-2.42-0.688-2.42-2.398v-11.109c0-1.221,0.644-2.014,2.099-2.014H157.266z M154.676,261.908
			c-0.214,0-0.301,0.127-0.301,0.32v9.439c0,0.234,0.044,0.322,0.301,0.322h1.242c0.257,0,0.3-0.088,0.3-0.322v-9.461
			c0-0.193-0.063-0.301-0.278-0.301h-1.264V261.908z"/>
		<path fill="#FFFFFF" d="M163.069,274.709c-1.777,0-2.418-0.686-2.418-2.396v-13.123h3.168v12.459c0,0.234,0.043,0.344,0.299,0.344
			h1.092c0.258,0,0.301-0.107,0.301-0.344v-12.459h3.168v13.123c0,1.711-0.643,2.396-2.419,2.396H163.069z"/>
		<path fill="#FFFFFF" d="M172.79,272.783l-0.278,1.926h-3.126l2.805-15.521h3.318l2.804,15.521h-3.125l-0.278-1.926H172.79z
			 M173.131,270.32h1.436l-0.707-5.502L173.131,270.32z"/>
		<path fill="#FFFFFF" d="M187.09,272.313c0,1.711-0.643,2.396-2.419,2.396h-5.502v-15.521h6.079c1.221,0,1.842,0.75,1.842,1.885
			V272.313z M182.252,261.908v10.082h1.455c0.258,0,0.301-0.086,0.301-0.32v-9.463c0-0.193-0.064-0.299-0.278-0.299H182.252z"/>
	</g>
</g>
</svg>
